%
M48
M72
T01C0.0240
T02C0.0315
T03C0.0320
T04C0.0400
T05C0.1102
%
T01
X8600Y4100
X8100Y5600
T02
X11600Y1600
X12600Y1600
X13600Y1600
X14600Y1600
T03
X2100Y9600
X3100Y9600
X4100Y9600
X5100Y9600
X6100Y9600
X7100Y9600
X8100Y9600
X9100Y9600
X10100Y9600
X11100Y9600
X12100Y9600
X13100Y9600
X14100Y9600
X15100Y9600
X15100Y12600
X14100Y12600
X13100Y12600
X12100Y12600
X11100Y12600
X10100Y12600
X9100Y12600
X8100Y12600
X7100Y12600
X6100Y12600
X5100Y12600
X4100Y12600
X3100Y12600
X2100Y12600
X22100Y9650
X22100Y11550
X19600Y9100
X19600Y10100
X19600Y11600
X19600Y12600
X26100Y3600
X26100Y7600
X24600Y9600
X25100Y10350
X25600Y9600
X20100Y3600
X20100Y7600
X22100Y3600
X22100Y7600
X24100Y3600
X24100Y7600
T04
X1100Y14600
X1100Y15600
X2100Y14600
X2100Y15600
X3100Y14600
X3100Y15600
X4100Y14600
X4100Y15600
X5100Y14600
X5100Y15600
X6100Y14600
X6100Y15600
X7100Y14600
X7100Y15600
X8100Y14600
X8100Y15600
X9100Y14600
X9100Y15600
X10100Y14600
X10100Y15600
X11100Y14600
X11100Y15600
X12100Y14600
X12100Y15600
X13100Y14600
X13100Y15600
X23600Y1600
X24600Y1600
X25600Y1600
X26600Y1600
X17100Y14600
X17100Y15600
X18100Y14600
X18100Y15600
X19600Y1600
X20600Y1600
X21600Y1600
X24600Y13100
X25600Y13100
X20100Y15600
X21100Y15600
X22100Y15600
T05
X1100Y1600
X29600Y15600
X28600Y2100
M30
