G75*
%MOIN*%
%OFA0B0*%
%FSLAX24Y24*%
%IPPOS*%
%LPD*%
%AMOC8*
5,1,8,0,0,1.08239X$1,22.5*
%
%ADD10C,0.0000*%
%ADD11C,0.0060*%
%ADD12C,0.0070*%
%ADD13C,0.0050*%
%ADD14C,0.0160*%
%ADD15C,0.0100*%
%ADD16R,0.0340X0.0240*%
D10*
X000100Y000100D02*
X000100Y012096D01*
X025470Y012096D01*
X025470Y000100D01*
X000100Y000100D01*
X000549Y011100D02*
X000551Y011147D01*
X000557Y011193D01*
X000567Y011239D01*
X000580Y011284D01*
X000598Y011327D01*
X000619Y011369D01*
X000643Y011409D01*
X000671Y011446D01*
X000702Y011481D01*
X000736Y011514D01*
X000772Y011543D01*
X000811Y011569D01*
X000852Y011592D01*
X000895Y011611D01*
X000939Y011627D01*
X000984Y011639D01*
X001030Y011647D01*
X001077Y011651D01*
X001123Y011651D01*
X001170Y011647D01*
X001216Y011639D01*
X001261Y011627D01*
X001305Y011611D01*
X001348Y011592D01*
X001389Y011569D01*
X001428Y011543D01*
X001464Y011514D01*
X001498Y011481D01*
X001529Y011446D01*
X001557Y011409D01*
X001581Y011369D01*
X001602Y011327D01*
X001620Y011284D01*
X001633Y011239D01*
X001643Y011193D01*
X001649Y011147D01*
X001651Y011100D01*
X001649Y011053D01*
X001643Y011007D01*
X001633Y010961D01*
X001620Y010916D01*
X001602Y010873D01*
X001581Y010831D01*
X001557Y010791D01*
X001529Y010754D01*
X001498Y010719D01*
X001464Y010686D01*
X001428Y010657D01*
X001389Y010631D01*
X001348Y010608D01*
X001305Y010589D01*
X001261Y010573D01*
X001216Y010561D01*
X001170Y010553D01*
X001123Y010549D01*
X001077Y010549D01*
X001030Y010553D01*
X000984Y010561D01*
X000939Y010573D01*
X000895Y010589D01*
X000852Y010608D01*
X000811Y010631D01*
X000772Y010657D01*
X000736Y010686D01*
X000702Y010719D01*
X000671Y010754D01*
X000643Y010791D01*
X000619Y010831D01*
X000598Y010873D01*
X000580Y010916D01*
X000567Y010961D01*
X000557Y011007D01*
X000551Y011053D01*
X000549Y011100D01*
X024049Y001100D02*
X024051Y001147D01*
X024057Y001193D01*
X024067Y001239D01*
X024080Y001284D01*
X024098Y001327D01*
X024119Y001369D01*
X024143Y001409D01*
X024171Y001446D01*
X024202Y001481D01*
X024236Y001514D01*
X024272Y001543D01*
X024311Y001569D01*
X024352Y001592D01*
X024395Y001611D01*
X024439Y001627D01*
X024484Y001639D01*
X024530Y001647D01*
X024577Y001651D01*
X024623Y001651D01*
X024670Y001647D01*
X024716Y001639D01*
X024761Y001627D01*
X024805Y001611D01*
X024848Y001592D01*
X024889Y001569D01*
X024928Y001543D01*
X024964Y001514D01*
X024998Y001481D01*
X025029Y001446D01*
X025057Y001409D01*
X025081Y001369D01*
X025102Y001327D01*
X025120Y001284D01*
X025133Y001239D01*
X025143Y001193D01*
X025149Y001147D01*
X025151Y001100D01*
X025149Y001053D01*
X025143Y001007D01*
X025133Y000961D01*
X025120Y000916D01*
X025102Y000873D01*
X025081Y000831D01*
X025057Y000791D01*
X025029Y000754D01*
X024998Y000719D01*
X024964Y000686D01*
X024928Y000657D01*
X024889Y000631D01*
X024848Y000608D01*
X024805Y000589D01*
X024761Y000573D01*
X024716Y000561D01*
X024670Y000553D01*
X024623Y000549D01*
X024577Y000549D01*
X024530Y000553D01*
X024484Y000561D01*
X024439Y000573D01*
X024395Y000589D01*
X024352Y000608D01*
X024311Y000631D01*
X024272Y000657D01*
X024236Y000686D01*
X024202Y000719D01*
X024171Y000754D01*
X024143Y000791D01*
X024119Y000831D01*
X024098Y000873D01*
X024080Y000916D01*
X024067Y000961D01*
X024057Y001007D01*
X024051Y001053D01*
X024049Y001100D01*
D11*
X021250Y002400D02*
X021250Y004800D01*
X021248Y004850D01*
X021242Y004899D01*
X021233Y004948D01*
X021220Y004996D01*
X021203Y005043D01*
X021183Y005088D01*
X021159Y005132D01*
X021132Y005174D01*
X021101Y005214D01*
X021068Y005251D01*
X021032Y005285D01*
X020994Y005317D01*
X020953Y005346D01*
X020911Y005371D01*
X020866Y005393D01*
X020820Y005412D01*
X020772Y005427D01*
X020724Y005438D01*
X020675Y005446D01*
X020625Y005450D01*
X020575Y005450D01*
X020525Y005446D01*
X020476Y005438D01*
X020428Y005427D01*
X020380Y005412D01*
X020334Y005393D01*
X020289Y005371D01*
X020247Y005346D01*
X020206Y005317D01*
X020168Y005285D01*
X020132Y005251D01*
X020099Y005214D01*
X020068Y005174D01*
X020041Y005132D01*
X020017Y005088D01*
X019997Y005043D01*
X019980Y004996D01*
X019967Y004948D01*
X019958Y004899D01*
X019952Y004850D01*
X019950Y004800D01*
X019950Y002400D01*
X019952Y002350D01*
X019958Y002301D01*
X019967Y002252D01*
X019980Y002204D01*
X019997Y002157D01*
X020017Y002112D01*
X020041Y002068D01*
X020068Y002026D01*
X020099Y001986D01*
X020132Y001949D01*
X020168Y001915D01*
X020206Y001883D01*
X020247Y001854D01*
X020289Y001829D01*
X020334Y001807D01*
X020380Y001788D01*
X020428Y001773D01*
X020476Y001762D01*
X020525Y001754D01*
X020575Y001750D01*
X020625Y001750D01*
X020675Y001754D01*
X020724Y001762D01*
X020772Y001773D01*
X020820Y001788D01*
X020866Y001807D01*
X020911Y001829D01*
X020953Y001854D01*
X020994Y001883D01*
X021032Y001915D01*
X021068Y001949D01*
X021101Y001986D01*
X021132Y002026D01*
X021159Y002068D01*
X021183Y002112D01*
X021203Y002157D01*
X021220Y002204D01*
X021233Y002252D01*
X021242Y002301D01*
X021248Y002350D01*
X021250Y002400D01*
X020600Y003100D02*
X020600Y003350D01*
X020900Y003350D01*
X020900Y003500D02*
X020300Y003500D01*
X020300Y003700D01*
X020900Y003700D01*
X020900Y003500D01*
X020600Y003350D02*
X020300Y003350D01*
X020300Y003850D02*
X020600Y003850D01*
X020600Y004100D01*
X020600Y003850D02*
X020900Y003850D01*
X022600Y003850D02*
X022600Y003350D01*
X022850Y003100D01*
X023350Y003100D01*
X023600Y003350D01*
X023850Y003100D01*
X024350Y003100D01*
X024600Y003350D01*
X024600Y003850D01*
X024350Y004100D01*
X023850Y004100D01*
X023600Y003850D01*
X023600Y003350D01*
X023600Y003850D02*
X023350Y004100D01*
X022850Y004100D01*
X022600Y003850D01*
X018100Y003750D02*
X018100Y005450D01*
X018098Y005467D01*
X018094Y005484D01*
X018087Y005500D01*
X018077Y005514D01*
X018064Y005527D01*
X018050Y005537D01*
X018034Y005544D01*
X018017Y005548D01*
X018000Y005550D01*
X017200Y005550D01*
X017183Y005548D01*
X017166Y005544D01*
X017150Y005537D01*
X017136Y005527D01*
X017123Y005514D01*
X017113Y005500D01*
X017106Y005484D01*
X017102Y005467D01*
X017100Y005450D01*
X017100Y003750D01*
X017102Y003733D01*
X017106Y003716D01*
X017113Y003700D01*
X017123Y003686D01*
X017136Y003673D01*
X017150Y003663D01*
X017166Y003656D01*
X017183Y003652D01*
X017200Y003650D01*
X018000Y003650D01*
X018017Y003652D01*
X018034Y003656D01*
X018050Y003663D01*
X018064Y003673D01*
X018077Y003686D01*
X018087Y003700D01*
X018094Y003716D01*
X018098Y003733D01*
X018100Y003750D01*
X018000Y003050D02*
X017200Y003050D01*
X017183Y003048D01*
X017166Y003044D01*
X017150Y003037D01*
X017136Y003027D01*
X017123Y003014D01*
X017113Y003000D01*
X017106Y002984D01*
X017102Y002967D01*
X017100Y002950D01*
X017100Y001250D01*
X017102Y001233D01*
X017106Y001216D01*
X017113Y001200D01*
X017123Y001186D01*
X017136Y001173D01*
X017150Y001163D01*
X017166Y001156D01*
X017183Y001152D01*
X017200Y001150D01*
X018000Y001150D01*
X018017Y001152D01*
X018034Y001156D01*
X018050Y001163D01*
X018064Y001173D01*
X018077Y001186D01*
X018087Y001200D01*
X018094Y001216D01*
X018098Y001233D01*
X018100Y001250D01*
X018100Y002950D01*
X018098Y002967D01*
X018094Y002984D01*
X018087Y003000D01*
X018077Y003014D01*
X018064Y003027D01*
X018050Y003037D01*
X018034Y003044D01*
X018017Y003048D01*
X018000Y003050D01*
X017600Y002250D02*
X017600Y002200D01*
X017600Y002000D02*
X017600Y001950D01*
X015600Y001850D02*
X015350Y001600D01*
X014850Y001600D01*
X014600Y001850D01*
X014350Y001600D01*
X013850Y001600D01*
X013600Y001850D01*
X013350Y001600D01*
X012850Y001600D01*
X012600Y001850D01*
X012600Y002350D01*
X012850Y002600D01*
X013350Y002600D01*
X013600Y002350D01*
X013850Y002600D01*
X014350Y002600D01*
X014600Y002350D01*
X014850Y002600D01*
X015350Y002600D01*
X015600Y002350D01*
X015600Y001850D01*
X014600Y001850D02*
X014600Y002350D01*
X013600Y002350D02*
X013600Y001850D01*
X011600Y001850D02*
X011350Y001600D01*
X010850Y001600D01*
X010600Y001850D01*
X010350Y001600D01*
X009850Y001600D01*
X009600Y001850D01*
X009350Y001600D01*
X008850Y001600D01*
X008600Y001850D01*
X008600Y002350D01*
X008850Y002600D01*
X009350Y002600D01*
X009600Y002350D01*
X009850Y002600D01*
X010350Y002600D01*
X010600Y002350D01*
X010850Y002600D01*
X011350Y002600D01*
X011600Y002350D01*
X011600Y001850D01*
X010600Y001850D02*
X010600Y002350D01*
X009600Y002350D02*
X009600Y001850D01*
X007600Y001850D02*
X007350Y001600D01*
X006850Y001600D01*
X006600Y001850D01*
X006350Y001600D01*
X005850Y001600D01*
X005600Y001850D01*
X005350Y001600D01*
X004850Y001600D01*
X004600Y001850D01*
X004350Y001600D01*
X003850Y001600D01*
X003600Y001850D01*
X003600Y002350D01*
X003850Y002600D01*
X004350Y002600D01*
X004600Y002350D01*
X004850Y002600D01*
X005350Y002600D01*
X005600Y002350D01*
X005600Y001850D01*
X005600Y002350D02*
X005850Y002600D01*
X006350Y002600D01*
X006600Y002350D01*
X006850Y002600D01*
X007350Y002600D01*
X007600Y002350D01*
X007600Y001850D01*
X006600Y001850D02*
X006600Y002350D01*
X004600Y002350D02*
X004600Y001850D01*
X002100Y001850D02*
X001850Y001600D01*
X001350Y001600D01*
X001100Y001850D01*
X001100Y002350D01*
X001350Y002600D01*
X001850Y002600D01*
X002100Y002350D01*
X002100Y001850D01*
X001300Y005000D02*
X015900Y005000D01*
X015900Y007200D01*
X001300Y007200D01*
X001300Y006350D01*
X001330Y006348D01*
X001360Y006343D01*
X001389Y006334D01*
X001416Y006321D01*
X001442Y006306D01*
X001466Y006287D01*
X001487Y006266D01*
X001506Y006242D01*
X001521Y006216D01*
X001534Y006189D01*
X001543Y006160D01*
X001548Y006130D01*
X001550Y006100D01*
X001548Y006070D01*
X001543Y006040D01*
X001534Y006011D01*
X001521Y005984D01*
X001506Y005958D01*
X001487Y005934D01*
X001466Y005913D01*
X001442Y005894D01*
X001416Y005879D01*
X001389Y005866D01*
X001360Y005857D01*
X001330Y005852D01*
X001300Y005850D01*
X001300Y005000D01*
X006100Y009350D02*
X006350Y009100D01*
X006850Y009100D01*
X007100Y009350D01*
X007350Y009100D01*
X007850Y009100D01*
X008100Y009350D01*
X008350Y009100D01*
X008850Y009100D01*
X009100Y009350D01*
X009350Y009100D01*
X009850Y009100D01*
X010100Y009350D01*
X010350Y009100D01*
X010850Y009100D01*
X011100Y009350D01*
X011350Y009100D01*
X011850Y009100D01*
X012100Y009350D01*
X012350Y009100D01*
X012850Y009100D01*
X013100Y009350D01*
X013350Y009100D01*
X013850Y009100D01*
X014100Y009350D01*
X014350Y009100D01*
X014850Y009100D01*
X015100Y009350D01*
X015350Y009100D01*
X015850Y009100D01*
X016100Y009350D01*
X016350Y009100D01*
X016850Y009100D01*
X017100Y009350D01*
X017350Y009100D01*
X017850Y009100D01*
X018100Y009350D01*
X018350Y009100D01*
X018850Y009100D01*
X019100Y009350D01*
X019100Y010850D01*
X018850Y011100D01*
X018350Y011100D01*
X018100Y010850D01*
X017850Y011100D01*
X017350Y011100D01*
X017100Y010850D01*
X016850Y011100D01*
X016350Y011100D01*
X016100Y010850D01*
X015850Y011100D01*
X015350Y011100D01*
X015100Y010850D01*
X014850Y011100D01*
X014350Y011100D01*
X014100Y010850D01*
X013850Y011100D01*
X013350Y011100D01*
X013100Y010850D01*
X012850Y011100D01*
X012350Y011100D01*
X012100Y010850D01*
X011850Y011100D01*
X011350Y011100D01*
X011100Y010850D01*
X010850Y011100D01*
X010350Y011100D01*
X010100Y010850D01*
X009850Y011100D01*
X009350Y011100D01*
X009100Y010850D01*
X008850Y011100D01*
X008350Y011100D01*
X008100Y010850D01*
X007850Y011100D01*
X007350Y011100D01*
X007100Y010850D01*
X006850Y011100D01*
X006350Y011100D01*
X006100Y010850D01*
X006100Y009350D01*
X004145Y010000D02*
X003987Y010000D01*
X003213Y010000D02*
X002987Y010000D01*
X002275Y009450D02*
X002238Y009501D01*
X002203Y009554D01*
X002171Y009610D01*
X002143Y009667D01*
X002119Y009726D01*
X002098Y009786D01*
X002081Y009847D01*
X002067Y009909D01*
X002058Y009972D01*
X002052Y010035D01*
X002050Y010099D01*
X002052Y010163D01*
X002058Y010226D01*
X002067Y010289D01*
X002080Y010351D01*
X002098Y010412D01*
X002118Y010472D01*
X002143Y010531D01*
X002170Y010588D01*
X002202Y010644D01*
X002236Y010697D01*
X002274Y010748D01*
X002315Y010797D01*
X002359Y010843D01*
X002405Y010887D01*
X002454Y010928D01*
X002505Y010965D01*
X002559Y011000D01*
X002614Y011031D01*
X002671Y011059D01*
X002730Y011083D01*
X002790Y011103D01*
X003410Y011103D02*
X003470Y011083D01*
X003529Y011059D01*
X003586Y011031D01*
X003641Y011000D01*
X003695Y010965D01*
X003746Y010928D01*
X003795Y010887D01*
X003841Y010843D01*
X003885Y010797D01*
X003926Y010748D01*
X003964Y010697D01*
X003998Y010644D01*
X004030Y010588D01*
X004057Y010531D01*
X004082Y010472D01*
X004102Y010412D01*
X004120Y010351D01*
X004133Y010289D01*
X004142Y010226D01*
X004148Y010163D01*
X004150Y010099D01*
X004148Y010035D01*
X004142Y009972D01*
X004133Y009909D01*
X004119Y009847D01*
X004102Y009786D01*
X004081Y009726D01*
X004057Y009667D01*
X004029Y009610D01*
X003997Y009554D01*
X003962Y009501D01*
X003925Y009450D01*
X002275Y009450D01*
X002213Y010000D02*
X002055Y010000D01*
X017600Y004750D02*
X017600Y004700D01*
X017600Y004500D02*
X017600Y004450D01*
X017950Y006650D02*
X018100Y006650D01*
X018150Y006700D01*
X020050Y006700D01*
X020100Y006650D01*
X020250Y006650D01*
X020267Y006652D01*
X020284Y006656D01*
X020300Y006663D01*
X020314Y006673D01*
X020327Y006686D01*
X020337Y006700D01*
X020344Y006716D01*
X020348Y006733D01*
X020350Y006750D01*
X020350Y007450D01*
X020348Y007467D01*
X020344Y007484D01*
X020337Y007500D01*
X020327Y007514D01*
X020314Y007527D01*
X020300Y007537D01*
X020284Y007544D01*
X020267Y007548D01*
X020250Y007550D01*
X020100Y007550D01*
X020050Y007500D01*
X018150Y007500D01*
X018100Y007550D01*
X017950Y007550D01*
X017933Y007548D01*
X017916Y007544D01*
X017900Y007537D01*
X017886Y007527D01*
X017873Y007514D01*
X017863Y007500D01*
X017856Y007484D01*
X017852Y007467D01*
X017850Y007450D01*
X017850Y006750D01*
X017852Y006733D01*
X017856Y006716D01*
X017863Y006700D01*
X017873Y006686D01*
X017886Y006673D01*
X017900Y006663D01*
X017916Y006656D01*
X017933Y006652D01*
X017950Y006650D01*
X022600Y006850D02*
X022600Y006350D01*
X022850Y006100D01*
X023350Y006100D01*
X023600Y006350D01*
X023850Y006100D01*
X024350Y006100D01*
X024600Y006350D01*
X024600Y006850D01*
X024350Y007100D01*
X023850Y007100D01*
X023600Y006850D01*
X023600Y006350D01*
X023600Y006850D02*
X023350Y007100D01*
X022850Y007100D01*
X022600Y006850D01*
X022850Y009100D02*
X023350Y009100D01*
X023600Y009350D01*
X023600Y010850D01*
X023850Y011100D01*
X024350Y011100D01*
X024600Y010850D01*
X024600Y009350D01*
X024350Y009100D01*
X023850Y009100D01*
X023600Y009350D01*
X022850Y009100D02*
X022600Y009350D01*
X022600Y010850D01*
X022850Y011100D01*
X023350Y011100D01*
X023600Y010850D01*
D12*
X001005Y006630D02*
X001005Y006209D01*
X000900Y005985D02*
X001005Y005880D01*
X001005Y005670D01*
X000900Y005565D01*
X000480Y005565D01*
X000374Y005670D01*
X000374Y005880D01*
X000480Y005985D01*
X000585Y006209D02*
X000374Y006419D01*
X001005Y006419D01*
X001005Y005345D02*
X001005Y005135D01*
X001005Y005240D02*
X000374Y005240D01*
X000374Y005135D02*
X000374Y005345D01*
D13*
X001245Y003295D02*
X001395Y003295D01*
X001320Y003295D02*
X001320Y002920D01*
X001245Y002845D01*
X001170Y002845D01*
X001095Y002920D01*
X001555Y002920D02*
X001630Y002845D01*
X001781Y002845D01*
X001856Y002920D01*
X001856Y002995D01*
X001781Y003070D01*
X001706Y003070D01*
X001781Y003070D02*
X001856Y003145D01*
X001856Y003220D01*
X001781Y003295D01*
X001630Y003295D01*
X001555Y003220D01*
X003595Y002920D02*
X003670Y002845D01*
X003745Y002845D01*
X003820Y002920D01*
X003820Y003295D01*
X003745Y003295D02*
X003895Y003295D01*
X004055Y003070D02*
X004281Y003295D01*
X004281Y002845D01*
X004356Y003070D02*
X004055Y003070D01*
X008595Y002920D02*
X008670Y002845D01*
X008745Y002845D01*
X008820Y002920D01*
X008820Y003295D01*
X008745Y003295D02*
X008895Y003295D01*
X009055Y003295D02*
X009055Y003070D01*
X009206Y003145D01*
X009281Y003145D01*
X009356Y003070D01*
X009356Y002920D01*
X009281Y002845D01*
X009130Y002845D01*
X009055Y002920D01*
X009055Y003295D02*
X009356Y003295D01*
X012595Y002920D02*
X012670Y002845D01*
X012745Y002845D01*
X012820Y002920D01*
X012820Y003295D01*
X012745Y003295D02*
X012895Y003295D01*
X013055Y003070D02*
X013206Y003220D01*
X013356Y003295D01*
X013281Y003070D02*
X013055Y003070D01*
X013055Y002920D01*
X013130Y002845D01*
X013281Y002845D01*
X013356Y002920D01*
X013356Y002995D01*
X013281Y003070D01*
X016525Y003800D02*
X016600Y003725D01*
X016900Y003725D01*
X016975Y003800D01*
X016975Y003950D01*
X016900Y004025D01*
X016975Y004185D02*
X016675Y004486D01*
X016600Y004486D01*
X016525Y004411D01*
X016525Y004260D01*
X016600Y004185D01*
X016600Y004025D02*
X016525Y003950D01*
X016525Y003800D01*
X016975Y004185D02*
X016975Y004486D01*
X019525Y002386D02*
X019525Y002085D01*
X019525Y002236D02*
X019075Y002236D01*
X019225Y002085D01*
X019150Y001925D02*
X019450Y001925D01*
X019525Y001850D01*
X019525Y001700D01*
X019450Y001625D01*
X019150Y001625D01*
X019075Y001700D01*
X019075Y001850D01*
X019150Y001925D01*
X019375Y001775D02*
X019525Y001925D01*
X016975Y001986D02*
X016975Y001685D01*
X016900Y001525D02*
X016975Y001450D01*
X016975Y001300D01*
X016900Y001225D01*
X016600Y001225D01*
X016525Y001300D01*
X016525Y001450D01*
X016600Y001525D01*
X016675Y001685D02*
X016525Y001836D01*
X016975Y001836D01*
X022595Y004420D02*
X022670Y004345D01*
X022745Y004345D01*
X022820Y004420D01*
X022820Y004795D01*
X022745Y004795D02*
X022895Y004795D01*
X023055Y004795D02*
X023356Y004795D01*
X023356Y004720D01*
X023055Y004420D01*
X023055Y004345D01*
X023055Y007345D02*
X023356Y007345D01*
X023206Y007345D02*
X023206Y007795D01*
X023055Y007645D01*
X022895Y007795D02*
X022745Y007795D01*
X022820Y007795D02*
X022820Y007420D01*
X022745Y007345D01*
X022670Y007345D01*
X022595Y007420D01*
X018686Y007725D02*
X018385Y007725D01*
X018536Y007725D02*
X018536Y008175D01*
X018385Y008025D01*
X018225Y007950D02*
X018150Y007875D01*
X017925Y007875D01*
X017925Y007725D02*
X017925Y008175D01*
X018150Y008175D01*
X018225Y008100D01*
X018225Y007950D01*
X018075Y007875D02*
X018225Y007725D01*
X022625Y011450D02*
X022700Y011375D01*
X022775Y011375D01*
X022850Y011450D01*
X022850Y011825D01*
X022775Y011825D02*
X022925Y011825D01*
X023085Y011750D02*
X023160Y011825D01*
X023311Y011825D01*
X023386Y011750D01*
X023386Y011675D01*
X023085Y011375D01*
X023386Y011375D01*
X007346Y011275D02*
X007046Y011275D01*
X007196Y011275D02*
X007196Y011725D01*
X007046Y011575D01*
X006886Y011275D02*
X006660Y011500D01*
X006585Y011425D02*
X006886Y011725D01*
X006585Y011725D02*
X006585Y011275D01*
X006425Y011350D02*
X006350Y011275D01*
X006200Y011275D01*
X006125Y011350D01*
X006200Y011500D02*
X006125Y011575D01*
X006125Y011650D01*
X006200Y011725D01*
X006350Y011725D01*
X006425Y011650D01*
X006350Y011500D02*
X006425Y011425D01*
X006425Y011350D01*
X006350Y011500D02*
X006200Y011500D01*
X003143Y011575D02*
X003143Y011650D01*
X003068Y011725D01*
X002917Y011725D01*
X002842Y011650D01*
X002682Y011650D02*
X002607Y011725D01*
X002457Y011725D01*
X002382Y011650D01*
X002382Y011350D01*
X002457Y011275D01*
X002607Y011275D01*
X002682Y011350D01*
X002842Y011275D02*
X003143Y011575D01*
X003143Y011275D02*
X002842Y011275D01*
X002225Y011275D02*
X002075Y011275D01*
X002150Y011275D02*
X002150Y011725D01*
X002075Y011725D02*
X002225Y011725D01*
D14*
X019750Y004800D02*
X019750Y002400D01*
X019752Y002343D01*
X019758Y002287D01*
X019767Y002231D01*
X019780Y002175D01*
X019797Y002121D01*
X019817Y002068D01*
X019841Y002017D01*
X019869Y001967D01*
X019899Y001919D01*
X019933Y001873D01*
X019970Y001830D01*
X020009Y001789D01*
X020051Y001751D01*
X020096Y001716D01*
X020143Y001684D01*
X020192Y001655D01*
X020242Y001629D01*
X020295Y001607D01*
X020348Y001588D01*
X020403Y001573D01*
X020459Y001562D01*
X020515Y001554D01*
X020572Y001550D01*
X020628Y001550D01*
X020685Y001554D01*
X020741Y001562D01*
X020797Y001573D01*
X020852Y001588D01*
X020905Y001607D01*
X020958Y001629D01*
X021008Y001655D01*
X021057Y001684D01*
X021104Y001716D01*
X021149Y001751D01*
X021191Y001789D01*
X021230Y001830D01*
X021267Y001873D01*
X021301Y001919D01*
X021331Y001967D01*
X021359Y002017D01*
X021383Y002068D01*
X021403Y002121D01*
X021420Y002175D01*
X021433Y002231D01*
X021442Y002287D01*
X021448Y002343D01*
X021450Y002400D01*
X021450Y004800D01*
X021448Y004857D01*
X021442Y004913D01*
X021433Y004969D01*
X021420Y005025D01*
X021403Y005079D01*
X021383Y005132D01*
X021359Y005183D01*
X021331Y005233D01*
X021301Y005281D01*
X021267Y005327D01*
X021230Y005370D01*
X021191Y005411D01*
X021149Y005449D01*
X021104Y005484D01*
X021057Y005516D01*
X021008Y005545D01*
X020958Y005571D01*
X020905Y005593D01*
X020852Y005612D01*
X020797Y005627D01*
X020741Y005638D01*
X020685Y005646D01*
X020628Y005650D01*
X020572Y005650D01*
X020515Y005646D01*
X020459Y005638D01*
X020403Y005627D01*
X020348Y005612D01*
X020295Y005593D01*
X020242Y005571D01*
X020192Y005545D01*
X020143Y005516D01*
X020096Y005484D01*
X020051Y005449D01*
X020009Y005411D01*
X019970Y005370D01*
X019933Y005327D01*
X019899Y005281D01*
X019869Y005233D01*
X019841Y005183D01*
X019817Y005132D01*
X019797Y005079D01*
X019780Y005025D01*
X019767Y004969D01*
X019758Y004913D01*
X019752Y004857D01*
X019750Y004800D01*
D15*
X017900Y004700D02*
X017600Y004700D01*
X017300Y004700D01*
X017300Y004500D02*
X017600Y004500D01*
X017900Y004500D01*
X017900Y002200D02*
X017600Y002200D01*
X017300Y002200D01*
X017300Y002000D02*
X017600Y002000D01*
X017900Y002000D01*
D16*
X017680Y007100D03*
X020520Y007100D03*
M02*
